<svg xmlns="http://www.w3.org/2000/svg" version="1.1" xmlns:xlink="http://www.w3.org/1999/xlink" xmlns:svgjs="http://svgjs.dev/svgjs" width="2000" height="1500" viewBox="0 0 2000 1500"><rect width="2000" height="1500" fill="#f6f6f6"></rect><g transform="matrix(0.75,0,0,0.75,249.090909090909,282.7536437246963)"><svg viewBox="0 0 396 247" data-background-color="#f6f6f6" preserveAspectRatio="xMidYMid meet" height="1247" width="2000" xmlns="http://www.w3.org/2000/svg" xmlns:xlink="http://www.w3.org/1999/xlink"><g id="tight-bounds" transform="matrix(1,0,0,1,0.2400000000000091,-0.09999999999999432)"><svg viewBox="0 0 395.52 247.2" height="247.2" width="395.52"><g><svg></svg></g><g><svg viewBox="0 0 395.52 247.2" height="247.2" width="395.52"><g transform="matrix(1,0,0,1,76.6557275390625,95.277099609375)"><svg viewBox="0 0 242.208544921875 56.64580078125" height="56.64580078125" width="242.208544921875"><g><svg viewBox="0 0 242.208544921875 56.64580078125" height="56.64580078125" width="242.208544921875"><g><svg viewBox="0 0 242.208544921875 56.64580078125" height="56.64580078125" width="242.208544921875"><g id="textblocktransform"><svg viewBox="0 0 242.208544921875 56.64580078125" height="56.64580078125" width="242.208544921875" id="textblock"><g><svg viewBox="0 0 242.208544921875 56.64580078125" height="56.64580078125" width="242.208544921875"><g><svg><g></g><g></g></svg></g><g><svg><g></g><g><svg></svg></g></svg></g><g id="text-0"><svg viewBox="0 0 242.208544921875 56.64580078125" height="56.64580078125" width="242.208544921875"><g><svg xmlns="http://www.w3.org/2000/svg" xmlns:xlink="http://www.w3.org/1999/xlink" version="1.1" baseProfile="tiny" x="0" y="0" viewBox="0 0 100 100" xml:space="preserve" height="56.64580078125" width="56.64580078125" class="icon-s-0" data-fill-palette-color="accent" id="s-0"><path d="M100 52.993v-6.004H53.466v-3.947h45.905c0 0-3.666-37.641-41.991-42.47v34.642h31.661c0 0-5.333-14.49-13.331-17.821v11.992H63.546V8.566c0 0 22.161 3.165 29.327 29.313l-39.407-0.232V0h-6.005v37.611L8.058 37.379c0 0 5.331-23.317 29.826-29.812l-0.333 21.818H25.554V17.061c0 0-9.998 4.996-13.997 18.154H43.05V0.739c0 0-37.326 5.496-42.491 42.303h46.902v3.947H0v6.004h47.461v4.537H0.642c5.166 36.806 42.492 42.302 42.492 42.302V65.357H11.64c3.999 13.158 13.997 18.154 13.997 18.154V71.187h11.998l0.333 21.818C13.473 86.51 8.141 63.192 8.141 63.192l39.32-0.231v36.988h6.005V62.925l39.49-0.231c-7.165 26.147-29.327 29.313-29.327 29.313V71.187h12.165v11.991c7.998-3.33 13.33-17.819 13.33-17.819H57.463V100c38.326-4.829 41.992-42.47 41.992-42.47H53.466v-4.537H100z" fill="#6dcb35" data-fill-palette-color="accent"></path></svg></g><g transform="matrix(1,0,0,1,70.01953125,3.552713678800501e-15)"><svg width="172.189013671875" viewBox="3.690000057220459 -35.0099983215332 106.40999603271484 35.0099983215332" height="56.645800781249996" data-palette-color="#43c462"><path d="M32.64-20.7L32.64-14.31 12.57-14.31 12.57-20.7 32.64-20.7ZM35.47-35.01L35.47-28.66 10.03-28.66 10.03 0 3.69 0 3.69-31.81Q3.69-32.47 3.93-33.06 4.17-33.64 4.6-34.08 5.03-34.52 5.62-34.77 6.2-35.01 6.88-35.01L6.88-35.01 35.47-35.01ZM71.95-6.35L71.95 0 49.05 0Q48.17 0 47.15-0.21 46.14-0.42 45.15-0.85 44.16-1.29 43.26-1.99 42.36-2.69 41.66-3.67 40.96-4.66 40.55-5.97 40.13-7.28 40.13-8.91L40.13-8.91 40.13-26.1Q40.13-26.98 40.34-27.99 40.55-29 40.99-29.99 41.43-30.98 42.14-31.88 42.84-32.79 43.83-33.48 44.82-34.18 46.12-34.59 47.41-35.01 49.05-35.01L49.05-35.01 71.95-35.01 71.95-28.66 49.05-28.66Q47.8-28.66 47.14-28 46.48-27.34 46.48-26.05L46.48-26.05 46.48-8.91Q46.48-7.69 47.15-7.02 47.82-6.35 49.05-6.35L49.05-6.35 71.95-6.35ZM110.1-6.35L110.1 0 81.15 0Q80.46 0 79.88-0.24 79.29-0.49 78.86-0.92 78.44-1.34 78.19-1.93 77.95-2.51 77.95-3.2L77.95-3.2 77.95-35.01 84.3-35.01 84.3-6.35 110.1-6.35Z" opacity="1" transform="matrix(1,0,0,1,0,0)" fill="#43c462" class="undefined-text-0" data-fill-palette-color="primary"></path></svg></g></svg></g></svg></g></svg></g></svg></g></svg></g></svg></g><g mask="url(#36ce962b-c1ca-4cf0-a3e4-b5edce66511e)"><g transform="matrix(2.452, 0, 0, 2.452, 75.16, 1)"><svg xmlns="http://www.w3.org/2000/svg" xmlns:xlink="http://www.w3.org/1999/xlink" version="1.1" baseProfile="tiny" x="0" y="0" viewBox="0 0 100 100" xml:space="preserve" height="100" width="100" class="icon-none" data-fill-palette-color="accent" id="none"><path d="M100 52.993v-6.004H53.466v-3.947h45.905c0 0-3.666-37.641-41.991-42.47v34.642h31.661c0 0-5.333-14.49-13.331-17.821v11.992H63.546V8.566c0 0 22.161 3.165 29.327 29.313l-39.407-0.232V0h-6.005v37.611L8.058 37.379c0 0 5.331-23.317 29.826-29.812l-0.333 21.818H25.554V17.061c0 0-9.998 4.996-13.997 18.154H43.05V0.739c0 0-37.326 5.496-42.491 42.303h46.902v3.947H0v6.004h47.461v4.537H0.642c5.166 36.806 42.492 42.302 42.492 42.302V65.357H11.64c3.999 13.158 13.997 18.154 13.997 18.154V71.187h11.998l0.333 21.818C13.473 86.51 8.141 63.192 8.141 63.192l39.32-0.231v36.988h6.005V62.925l39.49-0.231c-7.165 26.147-29.327 29.313-29.327 29.313V71.187h12.165v11.991c7.998-3.33 13.33-17.819 13.33-17.819H57.463V100c38.326-4.829 41.992-42.47 41.992-42.47H53.466v-4.537H100z" fill="#6dcb35" data-fill-palette-color="accent"></path></svg></g></g></svg></g><defs><mask id="51a34dd5-c5a3-490b-9be7-946c0a4995c2"><rect width="640" height="400" fill="white"></rect><rect width="266.4293994140625" height="83.39122891171876" fill="black" y="81.90438554414061" x="64.54530029296873" id="transform-me"></rect></mask><mask id="3986e6eb-49ac-4347-a483-e7a42128dc98"><rect width="640" height="400" fill="white"></rect><rect width="266.4293994140625" height="83.39122891171876" fill="black" y="81.90438554414061" x="64.54530029296873" id="transform-me"></rect></mask><mask id="84982b96-63b1-4cae-aae1-7e7cd18a4735"><rect width="640" height="400" fill="white"></rect><rect width="266.4293994140625" height="83.39122891171876" fill="black" y="81.90438554414061" x="64.54530029296873" id="transform-me"></rect></mask><mask id="872ad37b-16a3-4ecf-a799-a078397150a5"><rect width="640" height="400" fill="white"></rect><rect width="265.3175853005807" height="83.39122891171876" fill="black" y="81.90438554414061" x="65.10120734970965" id="transform-me"></rect></mask><mask id="6b2e8e75-25ba-4a79-8f28-d59c5c1c9481"><rect width="640" height="400" fill="white"></rect><rect width="266.4293994140625" height="83.39122891171874" fill="black" y="81.90438554414062" x="64.54530029296873" id="transform-me"></rect></mask><mask id="36ce962b-c1ca-4cf0-a3e4-b5edce66511e"><rect width="640" height="400" fill="white"></rect><rect width="266.4293994140625" height="83.39122891171876" fill="black" y="81.90438554414061" x="64.54530029296873" id="transform-me"></rect></mask></defs></svg><rect width="395.52" height="247.2" fill="none" stroke="none" visibility="hidden"></rect></g></svg></g></svg>